<mxfile host="app.diagrams.net" modified="2023-04-30T05:08:03.749Z" agent="Mozilla/5.0 (Windows NT 10.0; Win64; x64) AppleWebKit/537.36 (KHTML, like Gecko) Chrome/112.0.0.0 Safari/537.36" etag="OBTabFdgsFzchLCRBg4V" version="21.2.3" type="github">
  <diagram id="R2lEEEUBdFMjLlhIrx00" name="Page-1">
    <mxGraphModel dx="1086" dy="494" grid="1" gridSize="10" guides="1" tooltips="1" connect="1" arrows="1" fold="1" page="1" pageScale="1" pageWidth="850" pageHeight="1100" math="0" shadow="0" extFonts="Permanent Marker^https://fonts.googleapis.com/css?family=Permanent+Marker">
      <root>
        <mxCell id="0" />
        <mxCell id="1" parent="0" />
        <mxCell id="WINjAcvW5h-44KgiYsHn-2" value="BRANCH" style="rounded=0;whiteSpace=wrap;html=1;" vertex="1" parent="1">
          <mxGeometry x="310" y="200" width="100" height="30" as="geometry" />
        </mxCell>
        <mxCell id="WINjAcvW5h-44KgiYsHn-3" value="ACCOUNT" style="rounded=0;whiteSpace=wrap;html=1;" vertex="1" parent="1">
          <mxGeometry x="235" y="410" width="100" height="30" as="geometry" />
        </mxCell>
        <mxCell id="WINjAcvW5h-44KgiYsHn-4" value="LOAN" style="rounded=0;whiteSpace=wrap;html=1;" vertex="1" parent="1">
          <mxGeometry x="390" y="410" width="100" height="30" as="geometry" />
        </mxCell>
        <mxCell id="WINjAcvW5h-44KgiYsHn-6" value="CUSTOMERS" style="rounded=0;whiteSpace=wrap;html=1;" vertex="1" parent="1">
          <mxGeometry x="280" y="620" width="160" height="30" as="geometry" />
        </mxCell>
        <mxCell id="WINjAcvW5h-44KgiYsHn-10" value="BANK" style="rounded=0;whiteSpace=wrap;html=1;" vertex="1" parent="1">
          <mxGeometry x="100" y="200" width="100" height="30" as="geometry" />
        </mxCell>
        <mxCell id="WINjAcvW5h-44KgiYsHn-13" value="Name" style="ellipse;whiteSpace=wrap;html=1;" vertex="1" parent="1">
          <mxGeometry x="50" y="160" width="70" height="30" as="geometry" />
        </mxCell>
        <mxCell id="WINjAcvW5h-44KgiYsHn-15" value="Address" style="ellipse;whiteSpace=wrap;html=1;" vertex="1" parent="1">
          <mxGeometry x="50" y="240" width="70" height="30" as="geometry" />
        </mxCell>
        <mxCell id="WINjAcvW5h-44KgiYsHn-17" value="Name" style="ellipse;whiteSpace=wrap;html=1;" vertex="1" parent="1">
          <mxGeometry x="250" y="160" width="70" height="30" as="geometry" />
        </mxCell>
        <mxCell id="WINjAcvW5h-44KgiYsHn-20" value="Address" style="ellipse;whiteSpace=wrap;html=1;" vertex="1" parent="1">
          <mxGeometry x="400" y="160" width="80" height="30" as="geometry" />
        </mxCell>
        <mxCell id="WINjAcvW5h-44KgiYsHn-21" value="EMPLOYEE" style="rounded=0;whiteSpace=wrap;html=1;" vertex="1" parent="1">
          <mxGeometry x="550" y="200" width="90" height="30" as="geometry" />
        </mxCell>
        <mxCell id="WINjAcvW5h-44KgiYsHn-25" value="Name" style="ellipse;whiteSpace=wrap;html=1;" vertex="1" parent="1">
          <mxGeometry x="740" y="200" width="70" height="30" as="geometry" />
        </mxCell>
        <mxCell id="WINjAcvW5h-44KgiYsHn-27" value="Age" style="ellipse;whiteSpace=wrap;html=1;" vertex="1" parent="1">
          <mxGeometry x="620" y="280" width="70" height="30" as="geometry" />
        </mxCell>
        <mxCell id="WINjAcvW5h-44KgiYsHn-29" value="Date_of_join" style="ellipse;whiteSpace=wrap;html=1;" vertex="1" parent="1">
          <mxGeometry x="650" y="170" width="90" height="30" as="geometry" />
        </mxCell>
        <mxCell id="WINjAcvW5h-44KgiYsHn-32" value="Qualification" style="ellipse;whiteSpace=wrap;html=1;" vertex="1" parent="1">
          <mxGeometry x="650" y="230" width="100" height="30" as="geometry" />
        </mxCell>
        <mxCell id="WINjAcvW5h-44KgiYsHn-33" value="Account_Balance" style="ellipse;whiteSpace=wrap;html=1;" vertex="1" parent="1">
          <mxGeometry x="140" y="470" width="120" height="40" as="geometry" />
        </mxCell>
        <mxCell id="WINjAcvW5h-44KgiYsHn-35" value="Account_Type" style="ellipse;whiteSpace=wrap;html=1;" vertex="1" parent="1">
          <mxGeometry x="90" y="410" width="110" height="40" as="geometry" />
        </mxCell>
        <mxCell id="WINjAcvW5h-44KgiYsHn-44" value="Loan_Amount" style="ellipse;whiteSpace=wrap;html=1;" vertex="1" parent="1">
          <mxGeometry x="460" y="470" width="120" height="40" as="geometry" />
        </mxCell>
        <mxCell id="WINjAcvW5h-44KgiYsHn-45" value="Loan_Type" style="ellipse;whiteSpace=wrap;html=1;" vertex="1" parent="1">
          <mxGeometry x="560" y="405" width="110" height="40" as="geometry" />
        </mxCell>
        <mxCell id="WINjAcvW5h-44KgiYsHn-46" value="Customer_Name" style="ellipse;whiteSpace=wrap;html=1;" vertex="1" parent="1">
          <mxGeometry x="180" y="660" width="130" height="40" as="geometry" />
        </mxCell>
        <mxCell id="WINjAcvW5h-44KgiYsHn-48" value="Address" style="ellipse;whiteSpace=wrap;html=1;" vertex="1" parent="1">
          <mxGeometry x="240" y="720" width="100" height="40" as="geometry" />
        </mxCell>
        <mxCell id="WINjAcvW5h-44KgiYsHn-52" value="Phone" style="ellipse;shape=doubleEllipse;margin=3;whiteSpace=wrap;html=1;align=center;" vertex="1" parent="1">
          <mxGeometry x="380" y="720" width="100" height="40" as="geometry" />
        </mxCell>
        <mxCell id="WINjAcvW5h-44KgiYsHn-54" value="Code" style="ellipse;whiteSpace=wrap;html=1;align=center;fontStyle=4;" vertex="1" parent="1">
          <mxGeometry x="10" y="200" width="70" height="30" as="geometry" />
        </mxCell>
        <mxCell id="WINjAcvW5h-44KgiYsHn-55" value="Branch_id" style="ellipse;whiteSpace=wrap;html=1;align=center;fontStyle=4;" vertex="1" parent="1">
          <mxGeometry x="325" y="130" width="70" height="30" as="geometry" />
        </mxCell>
        <mxCell id="WINjAcvW5h-44KgiYsHn-56" value="Employee_id" style="ellipse;whiteSpace=wrap;html=1;align=center;fontStyle=4;" vertex="1" parent="1">
          <mxGeometry x="620" y="120" width="85" height="30" as="geometry" />
        </mxCell>
        <mxCell id="WINjAcvW5h-44KgiYsHn-58" value="Loan_number" style="ellipse;whiteSpace=wrap;html=1;align=center;fontStyle=4;" vertex="1" parent="1">
          <mxGeometry x="460" y="340" width="120" height="40" as="geometry" />
        </mxCell>
        <mxCell id="WINjAcvW5h-44KgiYsHn-59" value="Account_number" style="ellipse;whiteSpace=wrap;html=1;align=center;fontStyle=4;" vertex="1" parent="1">
          <mxGeometry x="140" y="340" width="120" height="40" as="geometry" />
        </mxCell>
        <mxCell id="WINjAcvW5h-44KgiYsHn-60" value="Customer_Id" style="ellipse;whiteSpace=wrap;html=1;align=center;fontStyle=4;" vertex="1" parent="1">
          <mxGeometry x="410" y="660" width="130" height="40" as="geometry" />
        </mxCell>
      </root>
    </mxGraphModel>
  </diagram>
</mxfile>
